<?xml version="1.0" encoding="UTF-8"?> <!-- Generator: Adobe Illustrator 23.0.3, SVG Export Plug-In . SVG Version: 6.00 Build 0) --> <svg xmlns="http://www.w3.org/2000/svg" xmlns:xlink="http://www.w3.org/1999/xlink" id="Layer_1" x="0px" y="0px" width="850.4px" height="566.9px" viewBox="0 0 850.4 566.9" style="enable-background:new 0 0 850.4 566.9;" xml:space="preserve"> <style type="text/css"> .st0{opacity:0.18;fill:#BDE5ED;enable-background:new ;} .st1{fill:#C7CCCD;} .st2{fill:#FFFFFF;} .st3{fill:#B9BAC0;} .st4{fill:#8A8896;} .st5{fill:#7FB6E2;} .st6{fill:url(#SVGID_1_);} .st7{fill:none;stroke:url(#SVGID_2_);stroke-width:5.03;stroke-miterlimit:10;} .st8{opacity:0.6;fill:#73B4E2;enable-background:new ;} .st9{opacity:0.53;} .st10{fill:#596C76;} .st11{fill:#EDF4FA;} .st12{fill:#D7E7F6;} .st13{fill:#E8EFF2;} .st14{opacity:0.33;fill:url(#SVGID_3_);enable-background:new ;} .st15{fill:#77949D;} .st16{fill:url(#SVGID_4_);} .st17{fill:url(#SVGID_5_);} .st18{fill:#717383;} .st19{fill:#464655;} .st20{fill:none;stroke:url(#SVGID_6_);stroke-width:5.03;stroke-miterlimit:10;} .st21{opacity:0.33;fill:url(#SVGID_7_);enable-background:new ;} .st22{opacity:0.33;fill:url(#SVGID_8_);enable-background:new ;} .st23{opacity:0.33;fill:url(#SVGID_9_);enable-background:new ;} .st24{opacity:0.33;fill:url(#SVGID_10_);enable-background:new ;} .st25{opacity:0.33;fill:url(#SVGID_11_);enable-background:new ;} .st26{opacity:0.33;fill:url(#SVGID_12_);enable-background:new ;} .st27{fill:#787680;} .st28{fill:#BEC7CF;} .st29{opacity:0.72;fill:url(#SVGID_13_);enable-background:new ;} .st30{opacity:0.72;fill:url(#SVGID_14_);enable-background:new ;} .st31{opacity:0.72;fill:url(#SVGID_15_);enable-background:new ;} .st32{opacity:0.13;fill:url(#SVGID_16_);enable-background:new ;} .st33{opacity:0.35;fill:url(#SVGID_17_);enable-background:new ;} .st34{opacity:0.33;fill:url(#SVGID_18_);enable-background:new ;} .st35{opacity:0.33;fill:url(#SVGID_19_);enable-background:new ;} .st36{opacity:0.33;fill:url(#SVGID_20_);enable-background:new ;} .st37{opacity:0.33;fill:url(#SVGID_21_);enable-background:new ;} .st38{fill:#A8A8AD;} .st39{opacity:0.69;} .st40{clip-path:url(#SVGID_23_);} .st41{fill:url(#SVGID_24_);} .st42{fill:url(#SVGID_25_);} .st43{fill:none;stroke:url(#SVGID_26_);stroke-width:4.85;stroke-miterlimit:10;} .st44{fill:url(#SVGID_27_);} .st45{opacity:0.33;fill:url(#SVGID_28_);enable-background:new ;} .st46{opacity:0.33;} .st47{opacity:0.33;fill:url(#SVGID_29_);enable-background:new ;} .st48{opacity:0.33;fill:url(#SVGID_30_);enable-background:new ;} .st49{opacity:0.33;fill:url(#SVGID_31_);enable-background:new ;} .st50{opacity:0.33;fill:url(#SVGID_32_);enable-background:new ;} .st51{opacity:0.69;fill:#717383;enable-background:new ;} .st52{opacity:0.69;fill:#464655;enable-background:new ;} .st53{fill:#FFD37D;} .st54{clip-path:url(#SVGID_34_);} .st55{fill:url(#SVGID_35_);} .st56{fill:url(#SVGID_36_);} .st57{fill:#FFFFFF;stroke:#BDE5ED;stroke-width:4.25;stroke-miterlimit:10;} .st58{fill:url(#SVGID_37_);} .st59{fill:url(#SVGID_38_);} .st60{opacity:0.6;} .st61{fill:#73B4E2;} .st62{fill:url(#SVGID_39_);} .st63{opacity:0.53;fill:url(#SVGID_40_);enable-background:new ;} .st64{opacity:0.33;fill:url(#SVGID_41_);enable-background:new ;} .st65{opacity:0.33;fill:url(#SVGID_42_);enable-background:new ;} .st66{opacity:0.53;fill:url(#SVGID_43_);enable-background:new ;} .st67{opacity:0.33;fill:url(#SVGID_44_);enable-background:new ;} .st68{opacity:0.33;fill:url(#SVGID_45_);enable-background:new ;} .st69{fill:url(#SVGID_46_);} .st70{fill:url(#SVGID_47_);} .st71{fill:url(#SVGID_48_);} .st72{fill:url(#SVGID_49_);} .st73{fill:none;stroke:url(#SVGID_50_);stroke-width:6.23;stroke-miterlimit:10;} .st74{fill:url(#SVGID_51_);} .st75{fill:url(#SVGID_52_);} .st76{fill:url(#SVGID_53_);} .st77{fill:url(#SVGID_54_);} .st78{fill:url(#SVGID_55_);} .st79{opacity:0.33;fill:url(#SVGID_56_);enable-background:new ;} </style> <title>Additional</title> <path class="st0" d="M107.3,42.2c32-24.8,74.1-19.3,106.3-8.6c48.6,16,92.7,39.4,130.5,69.1c16,12.6-51.4,4.6-27.2-1.1 c30.4-7.1,49.3-40.9,77.6-56.9c35.2-19.9,75-6.3,95.9,17.2s30.4,55.1,50.2,79.5c5.9,7.4,17.6,58.8,93.2,24.3 c14.2-6.4,26.7-17.2,41.1-23c46.7-18.9,80.5,22.3,90,61.9c21.8,91.7,8.5,216.9-94.9,289c-106.1,74-259,86-351.4,41.9 c-28.1-13.4-52.9-47-26.3-73.9c12-12.1,33.4-21.8,32.3-35.8c-0.4-4.7-3.6-8.2-7.1-11.2c-27.1-23-70.1-25.7-109.7-30.4 s-81.5-14.6-97.6-45.9c-9.8-19-2.4-43.1,8.3-59.4c7-10.7,19.6-14.9,28.6-23.3c12.6-11.7,22.1-30.8,21.4-48.8 c-0.9-23.1-19-29.5-36.5-37c-14.1-6-26.6-15.2-36.6-26.9C72.9,117.1,72.3,69.3,107.3,42.2z"></path> <path class="st1" d="M229.4,56.1h506.8c13.6,0,24.6,11,24.6,24.6v328c0,13.6-11,24.6-24.6,24.6H229.4c-13.6,0-24.6-11-24.6-24.6 v-328C204.8,67.1,215.8,56.1,229.4,56.1z"></path> <path class="st2" d="M723.8,62.1H245.5c-17.1,0-30.9,12.8-30.9,28.5v293.6c0,15.8,13.8,28.5,30.9,28.5h478.3 c17.1,0,30.9-12.7,30.9-28.5V90.6C754.7,74.9,740.9,62.1,723.8,62.1z"></path> <path class="st1" d="M205.8,101.1v334.5c0,5.1,4.1,9.2,9.2,9.2c0,0,0,0,0,0h536.4c5.1,0,9.2-4.1,9.2-9.2v0V101.1 c-0.1-23.4-19.2-42.3-42.6-42.2c0,0,0,0,0,0H248.4C225,58.8,205.9,77.7,205.8,101.1C205.8,101.1,205.8,101.1,205.8,101.1z M207.7,104.7c11.8-18.9,27.2-34.3,46.3-34.3h458.5c19,0,34.3,15.3,34.4,34.3v320.4H207.7V104.7z"></path> <path class="st3" d="M196.6,426.2h573.3c5.1,0,9.2,2.9,9.2,6.5l0,0c0,14.3-16.6,26-37,26H224.3c-20.4,0-37-11.7-37-26l0,0 C187.3,429.1,191.4,426.2,196.6,426.2z"></path> <path class="st4" d="M520.2,439.2h-74c-10.2,0-18.5-5.9-18.5-13h111C538.7,433.3,530.4,439.2,520.2,439.2z"></path> <rect x="803.7" y="181.9" class="st5" width="12.4" height="12.4"></rect> <linearGradient id="SVGID_1_" gradientUnits="userSpaceOnUse" x1="-264.0721" y1="5404.3433" x2="-255.9221" y2="5404.3433" gradientTransform="matrix(0.9999 1.047176e-02 -1.047176e-02 0.9999 1105.2786 -5316.646)"> <stop offset="0" style="stop-color:#F79720"></stop> <stop offset="1" style="stop-color:#FABE12"></stop> <stop offset="1" style="stop-color:#FABE12"></stop> </linearGradient> <polygon class="st6" points="784.6,88.7 784.7,80.6 792.8,80.7 792.8,88.8 "></polygon> <linearGradient id="SVGID_2_" gradientUnits="userSpaceOnUse" x1="816.585" y1="449.02" x2="837.575" y2="449.02" gradientTransform="matrix(1 0 0 -1 0 568)"> <stop offset="0" style="stop-color:#F05F58"></stop> <stop offset="1" style="stop-color:#F47F3F"></stop> <stop offset="1" style="stop-color:#F47F3F"></stop> </linearGradient> <rect x="819.1" y="111" class="st7" width="16" height="16"></rect> <path class="st2" d="M734.3,69.4H226.8c-6.7-0.1-12.2,5.4-12.3,12.1c0,0,0,0.1,0,0.1v23h532.1v-23c0-6.7-5.5-12.2-12.2-12.2 C734.4,69.4,734.3,69.4,734.3,69.4z"></path> <path class="st8" d="M734.3,69.4H226.8c-6.7-0.1-12.2,5.4-12.3,12.1c0,0,0,0.1,0,0.1v23h532.1v-23c0-6.7-5.5-12.2-12.2-12.2 C734.4,69.4,734.3,69.4,734.3,69.4z"></path> <g class="st9"> <path class="st10" d="M332.2,239.3v32c0.1,2.2-1.6,3.9-3.8,4c-0.1,0-0.1,0-0.2,0c-2.2,0-4-1.8-4-4v-32c-0.1-2.2,1.6-3.9,3.8-4 c0.1,0,0.1,0,0.2,0c2.2-0.1,3.9,1.6,4,3.8C332.2,239.2,332.2,239.2,332.2,239.3z"></path> <path class="st11" d="M336.2,219h-16c-2.2,0-4,1.8-4,4v16.3c0,2.2,1.8,4,4,4h16c2.2,0.1,3.9-1.6,4-3.8c0-0.1,0-0.1,0-0.2V223 c0.1-2.2-1.6-3.9-3.8-4C336.3,219,336.3,219,336.2,219z"></path> <path class="st12" d="M336.2,243.3h-8V219h8c2.2-0.1,3.9,1.6,4,3.8c0,0.1,0,0.1,0,0.2v16.3c0.1,2.2-1.6,3.9-3.8,4 C336.3,243.3,336.3,243.3,336.2,243.3z"></path> <path class="st13" d="M360.2,267.3h-47.9c-2.2-0.1-3.9,1.6-4,3.8c0,0.1,0,0.1,0,0.2v15.9c-0.8,11,7.5,20.6,18.5,21.4 c11,0.8,20.6-7.5,21.4-18.5c0.1-0.9,0.1-1.9,0-2.8v-11.9h8v11.9c0,2.2,1.8,4,4,4s4-1.8,4-4v-15.9c0.1-2.2-1.6-3.9-3.8-4 C360.3,267.3,360.3,267.3,360.2,267.3z"></path> <linearGradient id="SVGID_3_" gradientUnits="userSpaceOnUse" x1="260" y1="304.9" x2="300" y2="304.9" gradientTransform="matrix(1 0 0 -1 0 568)"> <stop offset="0" style="stop-color:#1087C3"></stop> <stop offset="1" style="stop-color:#05ACBB"></stop> </linearGradient> <path class="st14" d="M300,223c0-2.2-1.8-4-4-4h-21.9l-14.1,8v76.2c0,2.2,1.8,4,4,4h32c2.2,0,4-1.8,4-4V223z"></path> <circle class="st11" cx="280" cy="239.3" r="4"></circle> <circle class="st11" cx="280" cy="255.3" r="4"></circle> <path class="st1" d="M344.2,195H264c-2.2,0-4,1.8-4,4v28h108.2c2.2,0.1,3.9-1.6,4-3.8c0-0.1,0-0.1,0-0.2 C372.2,207.5,359.7,195,344.2,195z"></path> <path class="st1" d="M372.2,327.5c0.1,2.2-1.6,3.9-3.8,4c-0.1,0-0.1,0-0.2,0H272l-12-10.3v-18c0-2.2,1.8-4,4-4h80.2 C359.7,299.4,372.2,312,372.2,327.5z"></path> <path class="st15" d="M276,271.3v11.9l-9.7,4.8h-19.5l-11-4.8v-11.9c-0.1-2.2,1.6-3.9,3.8-4c0.1,0,0.1,0,0.2,0H272 c2.2-0.1,3.9,1.6,4,3.8C276,271.2,276,271.2,276,271.3z"></path> <path class="st15" d="M276,315.5v12c0,2.2-1.8,4-4,4h-32.2c32.2,0-15.8-1.8-15.8-4l3.5-12l18.2-5.1h25.4L276,315.5z"></path> <path class="st2" d="M235.8,283.2l-8.3,32.3h52l-3.5-32.3H235.8z"></path> </g> <linearGradient id="SVGID_4_" gradientUnits="userSpaceOnUse" x1="412.17" y1="328.25" x2="526.19" y2="328.25" gradientTransform="matrix(1 0 0 -1 0 568)"> <stop offset="0" style="stop-color:#F05F58"></stop> <stop offset="1" style="stop-color:#F47F3F"></stop> <stop offset="1" style="stop-color:#F47F3F"></stop> </linearGradient> <path class="st16" d="M521.8,212.7l3-4.8c-2.5-25.5-23.9-44.9-49.5-44.9l-3.4,72.1l3.4,81.4l49.8-4.9v-94L521.8,212.7z"></path> <linearGradient id="SVGID_5_" gradientUnits="userSpaceOnUse" x1="412.17" y1="328.25" x2="526.19" y2="328.25" gradientTransform="matrix(1 0 0 -1 0 568)"> <stop offset="0" style="stop-color:#F05F58"></stop> <stop offset="1" style="stop-color:#F47F3F"></stop> <stop offset="1" style="stop-color:#F47F3F"></stop> </linearGradient> <path class="st17" d="M428.8,212.7l-3.2,4.9v94l49.7,4.9V163c-25.6,0-47,19.4-49.5,44.9L428.8,212.7z"></path> <path class="st13" d="M500.9,266.9h-5.5l0.2-2.6c0.2-2.1-1.3-4.1-3.5-4.3c-0.1,0-0.3,0-0.4,0h-39.9c-2.2,0-3.9,1.7-3.9,3.9 c0,0.1,0,0.3,0,0.4l3.3,43c0.2,2,1.9,3.6,3.9,3.6h33.3c2,0,3.7-1.6,3.9-3.6l0.8-10.1h7.8c8.4-0.7,14.6-8,13.9-16.4 C514.2,273.4,508.3,267.5,500.9,266.9L500.9,266.9z M500.9,287.5h-7.1l0.9-10.9h6.2c3,0.4,5.1,3.2,4.7,6.2 C505.3,285.2,503.4,287.2,500.9,287.5z"></path> <circle class="st18" cx="475.3" cy="212.8" r="30.6"></circle> <path class="st19" d="M525.1,212.7c0-1.6-0.1-3.2-0.3-4.8h-49.5l-3.4,6.6l3.4,3.1h49.8V212.7z"></path> <path class="st19" d="M425.8,207.9c-0.1,1.6-0.2,3.2-0.2,4.8v4.9h49.7v-9.7H425.8z"></path> <path class="st19" d="M425.6,322.8c0,4.5,3.7,8.2,8.2,8.3h83c4.6,0,8.3-3.7,8.3-8.3v-11.7h-99.5V322.8z"></path> <linearGradient id="SVGID_6_" gradientUnits="userSpaceOnUse" x1="394.085" y1="301.325" x2="556.515" y2="301.325" gradientTransform="matrix(1 0 0 -1 0 568)"> <stop offset="0" style="stop-color:#F05F58"></stop> <stop offset="1" style="stop-color:#F47F3F"></stop> <stop offset="1" style="stop-color:#F47F3F"></stop> </linearGradient> <path class="st20" d="M417,151.2h116.6c11.3,0,20.4,9.1,20.4,20.4v190.2c0,11.3-9.1,20.4-20.4,20.4H417c-11.3,0-20.4-9.1-20.4-20.4 V171.6C396.6,160.3,405.7,151.2,417,151.2z"></path> <g class="st9"> <linearGradient id="SVGID_7_" gradientUnits="userSpaceOnUse" x1="615.6623" y1="230.2211" x2="639.5923" y2="182.3711" gradientTransform="matrix(1 0 0 -1 0 568)"> <stop offset="0" style="stop-color:#1087C3"></stop> <stop offset="1" style="stop-color:#05ACBB"></stop> </linearGradient> <path class="st21" d="M661.1,361.4h-69.9c-1.5,0.3-2.9-0.7-3.2-2.1c-0.3-1.5,0.7-2.9,2.1-3.2c0.3-0.1,0.7-0.1,1,0h69.9 c1.5-0.3,2.9,0.7,3.2,2.1c0.3,1.5-0.7,2.9-2.1,3.2C661.8,361.5,661.4,361.5,661.1,361.4L661.1,361.4z"></path> <linearGradient id="SVGID_8_" gradientUnits="userSpaceOnUse" x1="604.7172" y1="291.8786" x2="674.8973" y2="151.5086" gradientTransform="matrix(1 0 0 -1 0 568)"> <stop offset="0" style="stop-color:#1087C3"></stop> <stop offset="1" style="stop-color:#05ACBB"></stop> </linearGradient> <path class="st22" d="M687.3,347.9h-96.1c-1.5,0-2.7-1.2-2.7-2.7c0-1.5,1.2-2.7,2.7-2.7h96.1c1.5,0,2.7,1.2,2.7,2.7 C690,346.7,688.8,347.9,687.3,347.9C687.3,347.9,687.3,347.9,687.3,347.9z"></path> </g> <g class="st9"> <linearGradient id="SVGID_9_" gradientUnits="userSpaceOnUse" x1="282.5679" y1="389.4539" x2="305.5979" y2="343.384" gradientTransform="matrix(1 0 0 -1 0 568)"> <stop offset="0" style="stop-color:#1087C3"></stop> <stop offset="1" style="stop-color:#05ACBB"></stop> </linearGradient> <path class="st23" d="M305.6,184h-43.3c-1.5,0-2.7-1.2-2.7-2.7c0,0,0,0,0,0c0-1.4,1.2-2.6,2.6-2.6c0,0,0.1,0,0.1,0h43.3 c1.4-0.1,2.6,1.1,2.7,2.5c0,0,0,0.1,0,0.1C308.3,182.8,307.1,184,305.6,184z"></path> </g> <g class="st9"> <linearGradient id="SVGID_10_" gradientUnits="userSpaceOnUse" x1="295.1497" y1="230.3549" x2="319.2198" y2="182.2049" gradientTransform="matrix(1 0 0 -1 0 568)"> <stop offset="0" style="stop-color:#1087C3"></stop> <stop offset="1" style="stop-color:#05ACBB"></stop> </linearGradient> <path class="st24" d="M340.9,361.4h-70.4c-1.5,0.3-2.9-0.7-3.2-2.1c-0.3-1.5,0.7-2.9,2.1-3.2c0.3-0.1,0.7-0.1,1,0h70.4 c1.5-0.3,2.9,0.7,3.2,2.1c0.3,1.5-0.7,2.9-2.1,3.2C341.6,361.5,341.2,361.5,340.9,361.4z"></path> <linearGradient id="SVGID_11_" gradientUnits="userSpaceOnUse" x1="288.0089" y1="225.2745" x2="308.5889" y2="184.1045" gradientTransform="matrix(1 0 0 -1 0 568)"> <stop offset="0" style="stop-color:#1087C3"></stop> <stop offset="1" style="stop-color:#05ACBB"></stop> </linearGradient> <path class="st25" d="M308,347.9h-37.5c-1.5,0-2.7-1.2-2.7-2.7c0-1.5,1.2-2.7,2.7-2.7c0,0,0,0,0,0H308c1.5,0,2.7,1.2,2.7,2.7 C310.7,346.7,309.5,347.9,308,347.9z"></path> <linearGradient id="SVGID_12_" gradientUnits="userSpaceOnUse" x1="327.5633" y1="257.8867" x2="363.2133" y2="186.5766" gradientTransform="matrix(1 0 0 -1 0 568)"> <stop offset="0" style="stop-color:#1087C3"></stop> <stop offset="1" style="stop-color:#05ACBB"></stop> </linearGradient> <path class="st26" d="M366.6,347.9h-43c-1.5,0-2.7-1.2-2.7-2.7c0-1.5,1.2-2.7,2.7-2.7h43c1.5,0,2.7,1.2,2.7,2.7 C369.3,346.7,368.1,347.9,366.6,347.9C366.6,347.9,366.6,347.9,366.6,347.9z"></path> </g> <path class="st27" d="M624.4,233.9h48.8v16.3h-48.8V233.9z"></path> <g class="st9"> <path class="st1" d="M591.9,233.9h113.8v93.5H591.9V233.9z"></path> <path class="st28" d="M591.9,233.9h113.8v16.3H591.9V233.9z"></path> <path class="st2" d="M648.8,266.4L648.8,266.4c2.3,0,4.1,1.8,4.1,4.1l0,0c0,2.3-1.8,4.1-4.1,4.1l0,0c-2.2-0.1-4-1.9-4-4.1l0,0 C644.8,268.3,646.6,266.5,648.8,266.4z"></path> <path class="st13" d="M677.3,311.2h-8.1V303h8.1c2.2,0.4,4.3-1.2,4.7-3.4s-1.2-4.3-3.4-4.7c-0.4-0.1-0.9-0.1-1.3,0h-8.1v-8.1h8.1 c6.7,0,12.2,5.5,12.2,12.2C689.5,305.7,684.1,311.2,677.3,311.2C677.3,311.2,677.3,311.2,677.3,311.2L677.3,311.2z"></path> <path class="st13" d="M651.7,323.3h-5.8c-11.8,0-21.4-9.6-21.5-21.4V292c0-5.1,4.2-9.3,9.3-9.3h30.2c5.1,0,9.3,4.2,9.3,9.3v9.9 c0,11.8-9.6,21.4-21.4,21.4C651.8,323.3,651.7,323.3,651.7,323.3z"></path> <path class="st15" d="M709.8,331.5H587.9c-2.3,0-4.1-1.8-4.1-4.1s1.8-4.1,4.1-4.1h121.9c2.3,0,4.1,1.8,4.1,4.1 S712.1,331.5,709.8,331.5z"></path> <path class="st15" d="M628.5,274.6h-16.3c-2.2-0.1-4-1.9-4-4.1l0,0c0-2.2,1.8-4,4-4.1h11.3c1.5,0,2.9-0.8,3.6-2.2l4.1-8.1 c0.9-2,3.3-2.9,5.3-1.9c0,0,0.1,0,0.1,0l0,0c2,1,2.8,3.5,1.9,5.5l-6.4,12.6C631.4,273.7,630,274.6,628.5,274.6z"></path> <path class="st4" d="M665.1,258.3h-32.5c-4.5,0-8.1-3.6-8.2-8.1v-16.3h48.8v16.3C673.2,254.7,669.6,258.3,665.1,258.3z"></path> <path class="st1" d="M713.9,242H583.8v-32.5c0-4.5,3.6-8.1,8.1-8.1h113.8c4.5,0,8.1,3.6,8.2,8.1V242z"></path> <path class="st2" d="M604.1,217.7L604.1,217.7c2.2-0.1,4,1.7,4.1,3.9c0,0,0,0.1,0,0.1l0,0c0,2.3-1.8,4.1-4.1,4.1l0,0 c-2.2,0-4-1.8-4-4c0,0,0-0.1,0-0.1l0,0C600.1,219.5,601.9,217.7,604.1,217.7z"></path> <path class="st2" d="M620.4,217.7L620.4,217.7c2.2,0,4,1.8,4,4l0,0c0.1,2.2-1.7,4-3.9,4.1c0,0-0.1,0-0.1,0l0,0 c-2.3,0-4.1-1.8-4.1-4.1l0,0c0-2.2,1.8-4,4-4C620.3,217.7,620.4,217.7,620.4,217.7z"></path> <path class="st15" d="M693.6,225.8h-24.4c-2.2,0.4-4.3-1.2-4.7-3.4s1.2-4.3,3.4-4.7c0.4-0.1,0.9-0.1,1.3,0h24.4 c2.2,0.4,3.8,2.5,3.4,4.7C696.7,224.1,695.4,225.5,693.6,225.8L693.6,225.8z"></path> </g> <linearGradient id="SVGID_13_" gradientUnits="userSpaceOnUse" x1="236.3" y1="481.7" x2="247.2813" y2="481.7" gradientTransform="matrix(1 0 0 -1 0 568)"> <stop offset="0" style="stop-color:#F05F58"></stop> <stop offset="1" style="stop-color:#F47F3F"></stop> <stop offset="1" style="stop-color:#F47F3F"></stop> </linearGradient> <path class="st29" d="M241.8,91.8c-1.5,0-2.9-0.6-3.9-1.6c-2.1-2.2-2.1-5.6,0-7.8c1-1,2.4-1.6,3.9-1.6c3,0,5.5,2.5,5.5,5.5 S244.8,91.8,241.8,91.8L241.8,91.8z"></path> <linearGradient id="SVGID_14_" gradientUnits="userSpaceOnUse" x1="254.3" y1="481.7" x2="265.2813" y2="481.7" gradientTransform="matrix(1 0 0 -1 0 568)"> <stop offset="0" style="stop-color:#F79720"></stop> <stop offset="1" style="stop-color:#FABE12"></stop> <stop offset="1" style="stop-color:#FABE12"></stop> </linearGradient> <path class="st30" d="M259.8,91.8c-3,0-5.5-2.5-5.5-5.5s2.5-5.5,5.5-5.5c1.5,0,2.9,0.6,3.9,1.6c2.1,2.2,2.1,5.6,0,7.8 C262.7,91.2,261.3,91.8,259.8,91.8z"></path> <linearGradient id="SVGID_15_" gradientUnits="userSpaceOnUse" x1="272.33" y1="481.7" x2="283.32" y2="481.7" gradientTransform="matrix(1 0 0 -1 0 568)"> <stop offset="0" style="stop-color:#00A59B"></stop> <stop offset="1" style="stop-color:#27B373"></stop> </linearGradient> <path class="st31" d="M277.8,91.8c-1.5,0-2.8-0.6-3.9-1.6c-2.1-2.2-2.1-5.6,0-7.8c1.1-1,2.4-1.6,3.9-1.6c1.5,0,2.9,0.6,3.9,1.6 c2.1,2.2,2.1,5.6,0,7.8C280.7,91.2,279.3,91.8,277.8,91.8z"></path> <linearGradient id="SVGID_16_" gradientUnits="userSpaceOnUse" x1="587.6827" y1="500.7327" x2="698.4127" y2="389.9927" gradientTransform="matrix(1 0 0 -1 0 568)"> <stop offset="0" style="stop-color:#0988C5"></stop> <stop offset="1" style="stop-color:#00ADBC"></stop> </linearGradient> <path class="st32" d="M580.6,117.7h134c4.3,0,7.7,3.4,7.7,7.7v3.6c0,4.3-3.4,7.7-7.7,7.7h-134c-4.3,0-7.7-3.4-7.7-7.7v-3.6 C572.9,121.1,576.3,117.7,580.6,117.7z"></path> <linearGradient id="SVGID_17_" gradientUnits="userSpaceOnUse" x1="541.0721" y1="454.1221" x2="651.8121" y2="343.3821" gradientTransform="matrix(1 0 0 -1 0 568)"> <stop offset="0" style="stop-color:#0988C5"></stop> <stop offset="1" style="stop-color:#00ADBC"></stop> </linearGradient> <path class="st33" d="M565.1,136.9l-5.6-5.8c1.5-1.7,2.2-3.8,2.2-6c0-5.2-4.2-9.4-9.4-9.4s-9.4,4.2-9.4,9.4c0,5.2,4.2,9.4,9.4,9.4 c1.9,0,3.8-0.6,5.4-1.7l5.6,5.8c0.4,0.5,1.2,0.5,1.7,0.1c0,0,0.1-0.1,0.1-0.1C565.6,138.1,565.6,137.4,565.1,136.9 C565.1,136.9,565.1,136.9,565.1,136.9z M552.3,118.1c3.9-0.1,7,3,7.1,6.9c0.1,3.9-3,7-6.9,7.1c-3.9,0.1-7-3-7.1-6.9c0,0,0-0.1,0-0.1 C545.4,121.3,548.5,118.2,552.3,118.1z"></path> <linearGradient id="SVGID_18_" gradientUnits="userSpaceOnUse" x1="170.6533" y1="541.5598" x2="443.1732" y2="360.7398" gradientTransform="matrix(1 0 0 -1 0 568)"> <stop offset="0" style="stop-color:#1087C3"></stop> <stop offset="1" style="stop-color:#05ACBB"></stop> </linearGradient> <path class="st34" d="M339.4,132.2h-28.2c-1.7-0.3-2.9-2-2.6-3.7c0.2-1.3,1.3-2.4,2.6-2.6h28.2c1.7,0.3,2.9,2,2.6,3.7 C341.8,130.9,340.7,132,339.4,132.2L339.4,132.2z"></path> <linearGradient id="SVGID_19_" gradientUnits="userSpaceOnUse" x1="235.8753" y1="541.819" x2="508.3953" y2="360.9991" gradientTransform="matrix(1 0 0 -1 0 568)"> <stop offset="0" style="stop-color:#1087C3"></stop> <stop offset="1" style="stop-color:#05ACBB"></stop> </linearGradient> <path class="st35" d="M404.4,132.2h-28.1c-1.7-0.3-2.9-2-2.6-3.7c0.2-1.3,1.3-2.4,2.6-2.6h28.1c1.7-0.3,3.4,0.8,3.7,2.6 c0.3,1.7-0.8,3.4-2.6,3.7C405.2,132.3,404.8,132.3,404.4,132.2z"></path> <linearGradient id="SVGID_20_" gradientUnits="userSpaceOnUse" x1="300.6035" y1="541.319" x2="573.1234" y2="360.499" gradientTransform="matrix(1 0 0 -1 0 568)"> <stop offset="0" style="stop-color:#1087C3"></stop> <stop offset="1" style="stop-color:#05ACBB"></stop> </linearGradient> <path class="st36" d="M469.5,132.2h-28.1c-1.7,0.3-3.4-0.8-3.7-2.6c-0.3-1.7,0.8-3.4,2.6-3.7c0.4-0.1,0.8-0.1,1.1,0h28.1 c1.7,0.3,2.9,2,2.6,3.7C471.9,130.9,470.8,132,469.5,132.2z"></path> <linearGradient id="SVGID_21_" gradientUnits="userSpaceOnUse" x1="105.5963" y1="541.5645" x2="378.1163" y2="360.7444" gradientTransform="matrix(1 0 0 -1 0 568)"> <stop offset="0" style="stop-color:#1087C3"></stop> <stop offset="1" style="stop-color:#05ACBB"></stop> </linearGradient> <path class="st37" d="M274.3,132.2h-28.1c-1.7-0.3-2.9-2-2.6-3.7c0.2-1.3,1.3-2.4,2.6-2.6h28.1c1.7,0.3,2.9,2,2.6,3.7 C276.7,130.9,275.6,132,274.3,132.2z"></path> <path class="st2" d="M834.7,227.8c0.1-4.1-3.2-7.4-7.3-7.5c0,0,0,0,0,0h-133c-4,0.1-7.3,3.5-7.2,7.5v41.8h147.5V227.8z"></path> <path class="st38" d="M829,209.6H692.8c-9.4,0-17,7.6-17,17v273.1c0,9.4,7.6,17,17,17H829c9.4,0,17-7.6,17-17V226.6 C846,217.2,838.4,209.6,829,209.6z M834.7,403.2v68.1H687.2V233h147.5V403.2z"></path> <path class="st2" d="M834.7,226.4c0-3.4-3.2-6.1-7.3-6.1h-133c-4,0-7.2,2.7-7.2,6.1V272h147.5V226.4z"></path> <path class="st8" d="M834.7,226.4c0-3.4-3.2-6.1-7.3-6.1h-133c-4,0-7.2,2.7-7.2,6.1v38.5h147.5V226.4z"></path> <path class="st2" d="M687.5,424.2v73.7c-0.1,4,3.2,7.3,7.2,7.4c0,0,0,0,0,0h133.1c4-0.1,7.3-3.4,7.2-7.4c0,0,0,0,0,0v-73.7l0,0 V269.1H687.5V424.2z"></path> <path class="st38" d="M788.2,211.2h-53.7c-3.7,0-6.6,2.6-6.6,5.8l3,5.9c2.2,3.4,3,5.8,6.6,5.8h47.6c3.7,0,4.5-2.4,6.6-5.8l3.1-5.9 C794.8,213.8,791.8,211.2,788.2,211.2z"></path> <g class="st39"> <path class="st19" d="M756.6,223.4h19.2c1.8,0,3.2-1.4,3.2-3.2c0,0,0,0,0,0l0,0c0.1-1.8-1.3-3.2-3.1-3.3c0,0-0.1,0-0.1,0h-19.2 c-1.8,0-3.2,1.4-3.2,3.2c0,0,0,0.1,0,0.1l0,0C753.4,222,754.8,223.4,756.6,223.4L756.6,223.4z"></path> <circle class="st19" cx="743.8" cy="220.2" r="3.2"></circle> </g> <g> <g> <defs> <rect id="SVGID_22_" x="815.7" y="243.4" width="12.3" height="11.3"></rect> </defs> <clipPath id="SVGID_23_"> <use xlink:href="#SVGID_22_" style="overflow:visible;"></use> </clipPath> <g class="st40"> <path class="st2" d="M827,243.4h-10.3c-0.6,0-1,0.5-1,1.2c-0.1,0.5,0.3,1,0.9,1.1c0,0,0.1,0,0.1,0H827c0.5-0.1,1-0.5,0.9-1.1 c0,0,0,0,0,0C827.9,243.9,827.5,243.4,827,243.4"></path> <path class="st2" d="M827,252.4h-10.3c-0.6,0-1,0.5-1,1.2c-0.1,0.5,0.3,1,0.9,1.1c0,0,0.1,0,0.1,0H827c0.5-0.1,1-0.5,0.9-1.1 c0,0,0,0,0,0C827.9,252.9,827.5,252.4,827,252.4"></path> <path class="st2" d="M827,247.9h-10.3c-0.6,0-1,0.5-1,1.2c-0.1,0.5,0.3,1,0.9,1.1c0,0,0.1,0,0.1,0H827c0.5-0.1,1-0.5,0.9-1.1 c0,0,0,0,0,0C827.9,248.4,827.5,247.9,827,247.9"></path> </g> </g> </g> <path class="st2" d="M726.9,244h71.3c2.3,0,4.1,1.8,4.1,4.1v1.9c0,2.3-1.8,4.1-4.1,4.1h-71.3c-2.3,0-4.1-1.8-4.1-4.1v-1.9 C722.8,245.8,724.6,244,726.9,244z"></path> <linearGradient id="SVGID_24_" gradientUnits="userSpaceOnUse" x1="704.16" y1="188.6" x2="744.7" y2="188.6" gradientTransform="matrix(1 0 0 -1 0 568)"> <stop offset="0" style="stop-color:#F05F58"></stop> <stop offset="1" style="stop-color:#F47F3F"></stop> <stop offset="1" style="stop-color:#F47F3F"></stop> </linearGradient> <path class="st41" d="M743.2,369.8l1-1.7c-0.9-9.1-8.5-16-17.6-16l-1.2,25.7l1.2,28.9l17.7-1.7v-33.4L743.2,369.8z"></path> <linearGradient id="SVGID_25_" gradientUnits="userSpaceOnUse" x1="704.16" y1="188.6" x2="744.7" y2="188.6" gradientTransform="matrix(1 0 0 -1 0 568)"> <stop offset="0" style="stop-color:#F05F58"></stop> <stop offset="1" style="stop-color:#F47F3F"></stop> <stop offset="1" style="stop-color:#F47F3F"></stop> </linearGradient> <path class="st42" d="M710.1,369.8l-1.2,1.8V405l17.7,1.7v-54.6c-9.1,0.1-16.7,7-17.6,16L710.1,369.8z"></path> <path class="st13" d="M735.7,389.1h-1.9v-0.9c0.1-0.8-0.5-1.4-1.3-1.5c0,0-0.1,0-0.1,0h-14.2c-0.8,0.1-1.4,0.7-1.4,1.5l1.2,15.3 c0.1,0.7,0.7,1.3,1.4,1.3h11.8c0.7,0.1,1.3-0.5,1.4-1.2c0,0,0-0.1,0-0.1l0.3-3.6h2.8c3,0,5.4-2.4,5.4-5.4 C741.1,391.5,738.7,389.1,735.7,389.1z M735.7,396.4h-2.5l0.3-3.9h2.2c1,0,1.9,0.8,1.9,1.9c0,0,0,0.1,0,0.1c0.1,1-0.7,1.8-1.7,1.9 C735.8,396.4,735.8,396.4,735.7,396.4z"></path> <circle class="st18" cx="726.6" cy="369.9" r="10.9"></circle> <path class="st19" d="M744.3,369.8c0-0.6,0-1.1-0.1-1.7h-17.6l-1.2,2.4l1.2,1.1h17.7V369.8z"></path> <path class="st19" d="M709,368.1c0,0.6-0.1,1.2-0.1,1.7v1.8h17.7v-3.5H709z"></path> <path class="st19" d="M708.9,409c0,1.6,1.3,2.9,2.9,2.9c0,0,0.1,0,0.1,0h29.5c1.6,0,2.9-1.3,2.9-2.9c0,0,0,0,0,0v-4.2h-35.4V409z"></path> <linearGradient id="SVGID_26_" gradientUnits="userSpaceOnUse" x1="692.975" y1="186.01" x2="831.725" y2="186.01" gradientTransform="matrix(1 0 0 -1 0 568)"> <stop offset="0" style="stop-color:#F05F58"></stop> <stop offset="1" style="stop-color:#F47F3F"></stop> <stop offset="1" style="stop-color:#F47F3F"></stop> </linearGradient> <path class="st43" d="M706.7,343.4H818c6.2,0,11.3,5.1,11.3,11.3v54.6c0,6.2-5.1,11.3-11.3,11.3H706.7c-6.2,0-11.3-5.1-11.3-11.3 v-54.6C695.4,348.5,700.5,343.4,706.7,343.4z"></path> <linearGradient id="SVGID_27_" gradientUnits="userSpaceOnUse" x1="559.5801" y1="466.2031" x2="583.0402" y2="436.4131" gradientTransform="matrix(1 0 0 -1 0 568)"> <stop offset="0" style="stop-color:#F79720"></stop> <stop offset="1" style="stop-color:#FABE12"></stop> <stop offset="1" style="stop-color:#FABE12"></stop> </linearGradient> <path class="st44" d="M782.9,398h31c2.5,0,4.5,2,4.5,4.5v5.1c0,2.5-2,4.5-4.5,4.5h-31c-2.5,0-4.5-2-4.5-4.5v-5.1 C778.4,400,780.4,398,782.9,398z"></path> <g class="st9"> <path class="st10" d="M741,292.9v12.7c0,0.9-0.7,1.6-1.6,1.6c-0.9,0-1.6-0.7-1.6-1.6v-12.7c0-0.9,0.7-1.6,1.6-1.6 C740.3,291.3,741,292,741,292.9z"></path> <path class="st11" d="M742.5,284.8h-6.3c-0.9,0-1.6,0.7-1.6,1.6v6.5c0,0.9,0.7,1.6,1.6,1.6h6.3c0.9,0,1.6-0.7,1.6-1.6v-6.5 C744.1,285.5,743.4,284.8,742.5,284.8z"></path> <path class="st12" d="M742.5,294.5h-3.1v-9.7h3.1c0.9,0,1.6,0.7,1.6,1.6v6.5C744.1,293.8,743.4,294.5,742.5,294.5z"></path> <path class="st13" d="M752.1,304H733c-0.9,0-1.6,0.7-1.6,1.6v6.3c0,4.4,3.6,8,8,8c4.4,0,7.9-3.5,7.9-7.9c0,0,0-0.1,0-0.1v-4.7h3.2 v4.7c0,0.9,0.7,1.6,1.6,1.6c0.9,0,1.6-0.7,1.6-1.6v-6.3C753.7,304.7,753,304,752.1,304C752.1,304,752.1,304,752.1,304z"></path> <linearGradient id="SVGID_28_" gradientUnits="userSpaceOnUse" x1="712.26" y1="265.65" x2="728.14" y2="265.65" gradientTransform="matrix(1 0 0 -1 0 568)"> <stop offset="0" style="stop-color:#1087C3"></stop> <stop offset="1" style="stop-color:#05ACBB"></stop> </linearGradient> <path class="st45" d="M728.1,286.4c0-0.8-0.7-1.5-1.5-1.6h-8.8l-5.5,3.2v30.3c0,0.8,0.7,1.5,1.5,1.6h12.8c0.8-0.1,1.5-0.8,1.5-1.6 V286.4z"></path> <circle class="st11" cx="720.2" cy="292.9" r="1.6"></circle> <circle class="st11" cx="720.2" cy="299.2" r="1.6"></circle> <path class="st1" d="M745.7,275.3h-31.9c-0.8,0.1-1.5,0.8-1.5,1.6V288h43c0.8-0.1,1.5-0.8,1.5-1.6 C756.8,280.3,751.8,275.3,745.7,275.3z"></path> <path class="st1" d="M756.8,327.9c0,0.8-0.7,1.5-1.5,1.6H717l-4.7-4v-7.2c0-0.8,0.7-1.5,1.5-1.6h31.9 C751.8,316.8,756.8,321.8,756.8,327.9z"></path> <path class="st15" d="M718.6,305.6v4.8l-3.9,1.8H707l-4.4-1.8v-4.8c0-0.9,0.7-1.6,1.6-1.6H717C717.9,304,718.6,304.7,718.6,305.6z"></path> <path class="st15" d="M718.6,323.2v4.7c0,0.9-0.7,1.6-1.6,1.6h-12.8c-0.9,0-1.6-0.7-1.6-1.6v-4.7l2.6-2h11.4L718.6,323.2z"></path> <path class="st2" d="M702.6,310.4v12.8h16v-12.8H702.6z"></path> </g> <g class="st9"> <path class="st1" d="M705.2,449.4h49.5V490h-49.5V449.4z"></path> <path class="st28" d="M705,449.4h49.5v7H705V449.4z"></path> <path class="st2" d="M729.7,463.5L729.7,463.5c1,0,1.8,0.8,1.8,1.8l0,0c-0.1,1-0.8,1.7-1.8,1.7l0,0c-0.9,0-1.7-0.8-1.7-1.7l0,0 C728,464.3,728.7,463.6,729.7,463.5z"></path> <path class="st13" d="M742.1,482.9h-3.5v-3.5h3.5c1,0,1.8-0.8,1.8-1.8c-0.1-1-0.8-1.7-1.8-1.7h-3.5v-3.6h3.5c2.9,0,5.3,2.4,5.3,5.3 C747.4,480.5,745,482.9,742.1,482.9L742.1,482.9z"></path> <path class="st13" d="M731,488.2h-2.5c-5.1,0.1-9.3-4.1-9.4-9.2c0,0,0-0.1,0-0.1v-4.3c0-2.2,1.8-4,4-4c0,0,0.1,0,0.1,0h13.1 c2.2,0,4,1.8,4,4v4.3c0.1,5.1-4,9.2-9.1,9.3C731.1,488.2,731.1,488.2,731,488.2z"></path> <path class="st15" d="M756.2,491.8h-53c-1,0-1.8-0.8-1.8-1.8c0-1,0.8-1.8,1.8-1.8h53c1,0,1.8,0.8,1.8,1.8 C758,491,757.2,491.8,756.2,491.8L756.2,491.8z"></path> <path class="st15" d="M720.9,467h-7.1c-0.9,0-1.7-0.8-1.7-1.7v0l0,0c-0.1-0.9,0.7-1.7,1.6-1.8c0,0,0.1,0,0.1,0h4.9 c0.7,0,1.3-0.4,1.6-1l1.8-3.5c0.4-0.9,1.4-1.2,2.3-0.8c0,0,0,0,0,0l0,0c0.9,0.4,1.3,1.4,0.9,2.2c0,0.1-0.1,0.1-0.1,0.2l-2.7,5.5 C722.2,466.7,721.6,467,720.9,467z"></path> <path class="st4" d="M736.8,460h-14.1c-2,0-3.6-1.6-3.6-3.6v-7h21.2v7c0.1,1.9-1.5,3.5-3.4,3.6C736.9,460,736.8,460,736.8,460z"></path> <path class="st1" d="M758,452.9h-56.5v-14.1c-0.1-1.9,1.5-3.5,3.4-3.6c0,0,0.1,0,0.1,0h49.5c1.9,0.1,3.5,1.7,3.5,3.6V452.9z"></path> <path class="st2" d="M710.3,442.3L710.3,442.3c1,0,1.8,0.8,1.8,1.8l0,0c-0.1,1-0.8,1.7-1.8,1.7l0,0c-1,0-1.7-0.7-1.8-1.7l0,0 C708.5,443.1,709.3,442.3,710.3,442.3z"></path> <path class="st2" d="M717.4,442.3L717.4,442.3c1,0.1,1.7,0.8,1.7,1.8l0,0c0,0.9-0.8,1.7-1.7,1.7l0,0c-1,0-1.7-0.7-1.8-1.7l0,0 C715.6,443.1,716.4,442.3,717.4,442.3z"></path> <path class="st15" d="M749.2,445.8h-10.6c-1,0-1.7-0.7-1.8-1.7c0-1,0.8-1.8,1.8-1.8h10.6c1,0.1,1.7,0.8,1.7,1.8 C750.9,445,750.1,445.8,749.2,445.8z"></path> </g> <g class="st46"> <linearGradient id="SVGID_29_" gradientUnits="userSpaceOnUse" x1="795.3706" y1="278.0338" x2="775.3806" y2="229.0238" gradientTransform="matrix(1 0 0 -1 0 568)"> <stop offset="0" style="stop-color:#1087C3"></stop> <stop offset="1" style="stop-color:#05ACBB"></stop> </linearGradient> <path class="st47" d="M805.5,315.1h-38.6c-1.5,0.3-2.9-0.7-3.2-2.1c-0.3-1.5,0.7-2.9,2.1-3.2c0.3-0.1,0.7-0.1,1,0h38.6 c1.5-0.3,2.9,0.7,3.2,2.1c0.3,1.5-0.7,2.9-2.1,3.2C806.2,315.2,805.8,315.2,805.5,315.1z"></path> <linearGradient id="SVGID_30_" gradientUnits="userSpaceOnUse" x1="794.8281" y1="274.3081" x2="753.6181" y2="173.3081" gradientTransform="matrix(1 0 0 -1 0 568)"> <stop offset="0" style="stop-color:#1087C3"></stop> <stop offset="1" style="stop-color:#05ACBB"></stop> </linearGradient> <path class="st48" d="M819.5,301.6h-52.6c-1.5,0.3-2.9-0.7-3.2-2.1c-0.3-1.5,0.7-2.9,2.1-3.2c0.3-0.1,0.7-0.1,1,0h52.6 c1.5,0.3,2.4,1.7,2.1,3.2C821.4,300.5,820.6,301.4,819.5,301.6z"></path> </g> <g class="st46"> <linearGradient id="SVGID_31_" gradientUnits="userSpaceOnUse" x1="796.5642" y1="115.3183" x2="776.5742" y2="66.3083" gradientTransform="matrix(1 0 0 -1 0 568)"> <stop offset="0" style="stop-color:#1087C3"></stop> <stop offset="1" style="stop-color:#05ACBB"></stop> </linearGradient> <path class="st49" d="M806.7,477.8h-38.6c-1.5,0.3-2.9-0.7-3.2-2.1c-0.3-1.5,0.7-2.9,2.1-3.2c0.3-0.1,0.7-0.1,1,0h38.6 c1.5-0.3,2.9,0.7,3.2,2.1c0.3,1.5-0.7,2.9-2.1,3.2C807.4,477.9,807,477.9,806.7,477.8L806.7,477.8z"></path> <linearGradient id="SVGID_32_" gradientUnits="userSpaceOnUse" x1="796.4205" y1="111.4257" x2="755.2205" y2="10.4257" gradientTransform="matrix(1 0 0 -1 0 568)"> <stop offset="0" style="stop-color:#1087C3"></stop> <stop offset="1" style="stop-color:#05ACBB"></stop> </linearGradient> <path class="st50" d="M820.6,464.3h-52.5c-1.5,0.3-2.9-0.7-3.2-2.1c-0.3-1.5,0.7-2.9,2.1-3.2c0.3-0.1,0.7-0.1,1,0h52.5 c1.5-0.3,2.9,0.7,3.2,2.1c0.3,1.5-0.7,2.9-2.1,3.2C821.3,464.4,820.9,464.4,820.6,464.3z"></path> </g> <path class="st2" d="M300.8,520.8H66.3c-13.1,0-23.6-10.5-23.7-23.6V152.6c0.1-13.1,10.6-23.6,23.7-23.6h234.5 c13.1,0,23.6,10.5,23.7,23.6v344.6C324.4,510.3,313.9,520.8,300.8,520.8z"></path> <path class="st51" d="M300.8,520.8H66.3c-13.1,0-23.6-10.5-23.7-23.6V152.6c0.1-13.1,10.6-23.6,23.7-23.6h234.5 c13.1,0,23.6,10.5,23.7,23.6v344.6C324.4,510.3,313.9,520.8,300.8,520.8z"></path> <path class="st2" d="M298.1,158.3H69c-6,0-10.9,4.9-10.9,10.9v324.6c0,6,4.9,10.9,10.9,10.9c0,0,0,0,0,0h229.1 c6,0,10.9-4.9,10.9-10.9c0,0,0,0,0,0V169.2C309,163.2,304.1,158.3,298.1,158.3z"></path> <path class="st52" d="M184.3,154.4h-1.4l-1.5-0.5l-1.3-0.7l-1.2-0.9L178,151c-0.3-0.4-0.5-0.8-0.7-1.3c-0.2-0.5-0.4-0.9-0.5-1.4 c-0.1-1-0.1-2,0-3c0.1-0.5,0.3-1,0.5-1.5c0.2-0.5,0.4-0.9,0.7-1.3l0.9-1.1l1.2-1l1.3-0.7l1.5-0.4c2.5-0.5,5.1,0.3,6.9,2.1l0.9,1.1 c0.3,0.4,0.5,0.8,0.7,1.3c0.2,0.5,0.4,1,0.5,1.5c0,0.5,0.1,1,0.1,1.5s-0.1,1-0.1,1.5c-0.1,0.5-0.3,0.9-0.5,1.4 c-0.2,0.5-0.4,0.9-0.7,1.3l-0.9,1.2C188.3,153.6,186.3,154.4,184.3,154.4z"></path> <path class="st53" d="M727.5,29h6.3v-6.3c0-0.5,0.4-0.9,0.9-0.9l0,0c0.5,0.1,0.8,0.4,0.8,0.9V29h6.3c0.5,0,0.8,0.3,0.9,0.8 c0,0.3-0.2,0.6-0.4,0.7h-6.8V37c0,0.3-0.2,0.6-0.4,0.7h-0.4c-0.5,0-0.8-0.3-0.9-0.8v-6.3h-6.3c-0.5-0.1-0.8-0.4-0.8-0.9 C726.8,29.3,727.1,29,727.5,29z"></path> <rect x="188.5" y="18" class="st5" width="10.5" height="10.5"></rect> <g> <defs> <path id="SVGID_33_" d="M248,36.6h-23.5l11.7-18.3L248,36.6z M236.2,9.7l-20.1,31.5h40.2L236.2,9.7z"></path> </defs> <clipPath id="SVGID_34_"> <use xlink:href="#SVGID_33_" style="overflow:visible;"></use> </clipPath> <g class="st54"> <linearGradient id="SVGID_35_" gradientUnits="userSpaceOnUse" x1="-1025.3813" y1="1799.8494" x2="-1023.0813" y2="1799.8494" gradientTransform="matrix(-17.53 0 0 17.53 -17718.1211 -31525.9219)"> <stop offset="0" style="stop-color:#F79720"></stop> <stop offset="1" style="stop-color:#FABE12"></stop> <stop offset="1" style="stop-color:#FABE12"></stop> </linearGradient> <rect x="216.1" y="9.7" class="st55" width="40.2" height="31.5"></rect> </g> </g> <linearGradient id="SVGID_36_" gradientUnits="userSpaceOnUse" x1="-609.3701" y1="548.5" x2="-594.0201" y2="548.5" gradientTransform="matrix(-1 0 0 -1 21.73 568)"> <stop offset="0" style="stop-color:#0988C5"></stop> <stop offset="1" style="stop-color:#00ADBC"></stop> </linearGradient> <path class="st56" d="M615.7,19.5c0,4.3,3.4,7.7,7.7,7.7c4.3,0,7.7-3.4,7.7-7.7c0-4.3-3.4-7.7-7.7-7.7S615.7,15.2,615.7,19.5 C615.7,19.5,615.7,19.5,615.7,19.5"></path> <path class="st57" d="M406.5,515.5c-0.1,3.4,2.7,6.2,6.1,6.3s6.2-2.7,6.3-6.1c0.1-3.4-2.7-6.2-6.1-6.3c-0.1,0-0.1,0-0.2,0 C409.2,509.4,406.5,512.1,406.5,515.5L406.5,515.5"></path> <linearGradient id="SVGID_37_" gradientUnits="userSpaceOnUse" x1="-160.97" y1="487.4" x2="-121.17" y2="487.4" gradientTransform="matrix(-1 0 0 -1 21.73 568)"> <stop offset="0" style="stop-color:#00A59B"></stop> <stop offset="1" style="stop-color:#27B373"></stop> </linearGradient> <polygon class="st58" points="142.9,80.6 142.9,80.6 142.9,78.5 160.7,78.5 160.7,60.7 164.9,60.7 164.9,78.5 182.7,78.5 182.7,82.7 164.9,82.7 164.9,100.5 160.7,100.5 160.7,82.7 142.9,82.7 142.9,80.6 "></polygon> <linearGradient id="SVGID_38_" gradientUnits="userSpaceOnUse" x1="-1366.1578" y1="537.8268" x2="-1357.0278" y2="537.8268" gradientTransform="matrix(-0.9999 -1.047176e-02 1.047176e-02 -0.9999 -696.0762 557.9855)"> <stop offset="0" style="stop-color:#F79720"></stop> <stop offset="1" style="stop-color:#FABE12"></stop> <stop offset="1" style="stop-color:#FABE12"></stop> </linearGradient> <polygon class="st59" points="666.5,38.9 666.6,29.8 675.7,29.9 675.6,39 "></polygon> <rect x="310.3" y="13.4" class="st5" width="11.7" height="11.7"></rect> <g class="st60"> <path class="st61" d="M309,169.2c0-6-4.9-10.9-10.9-10.9H69c-6,0-10.9,4.9-10.9,10.9v22.2H309V169.2z"></path> </g> <path class="st2" d="M94.1,168.6h80.2c2.5,0,4.6,2.1,4.6,4.6v2.2c0,2.5-2.1,4.6-4.6,4.6H94.1c-2.5,0-4.6-2.1-4.6-4.6v-2.2 C89.5,170.7,91.6,168.6,94.1,168.6z"></path> <path class="st2" d="M84.8,180.1l-3.3-3.5c0.9-1,1.3-2.3,1.3-3.6c0-3.1-2.5-5.6-5.6-5.6s-5.6,2.5-5.6,5.6c0,0,0,0,0,0 c0,3.1,2.5,5.6,5.6,5.6c0,0,0,0,0,0c1.1,0,2.3-0.3,3.2-1l3.4,3.5l0.5,0.2l0.5-0.2C85.1,180.8,85.1,180.4,84.8,180.1 C84.8,180.1,84.8,180.1,84.8,180.1z M77.2,168.8c2.3,0,4.2,1.9,4.2,4.2c0,2.3-1.9,4.2-4.2,4.2c-2.3,0-4.2-1.9-4.2-4.2 S74.9,168.8,77.2,168.8z"></path> <linearGradient id="SVGID_39_" gradientUnits="userSpaceOnUse" x1="405.557" y1="344.8513" x2="429.027" y2="315.0612" gradientTransform="matrix(1 0 0 -1 0 568)"> <stop offset="0" style="stop-color:#F79720"></stop> <stop offset="1" style="stop-color:#FABE12"></stop> <stop offset="1" style="stop-color:#FABE12"></stop> </linearGradient> <path class="st62" d="M498.6,355.3h34.6c2.8,0,5.1,2.3,5.1,5.1v5.6c0,2.8-2.3,5.1-5.1,5.1h-34.6c-2.8,0-5.1-2.3-5.1-5.1v-5.6 C493.5,357.6,495.8,355.3,498.6,355.3z"></path> <linearGradient id="SVGID_40_" gradientUnits="userSpaceOnUse" x1="215.5935" y1="341.4173" x2="264.5235" y2="222.8573" gradientTransform="matrix(1 0 0 -1 0 568)"> <stop offset="0" style="stop-color:#1087C3"></stop> <stop offset="1" style="stop-color:#05ACBB"></stop> </linearGradient> <path class="st63" d="M216.3,255.7h27.8c2.2,0,4,1.8,4,4v4.6c0,2.2-1.8,4-4,4h-27.8c-2.2,0-4-1.8-4-4v-4.6 C212.3,257.4,214.1,255.7,216.3,255.7z"></path> <g class="st9"> <linearGradient id="SVGID_41_" gradientUnits="userSpaceOnUse" x1="214.9806" y1="363.8051" x2="109.9806" y2="133.8051" gradientTransform="matrix(1 0 0 -1 0 568)"> <stop offset="0" style="stop-color:#1087C3"></stop> <stop offset="1" style="stop-color:#05ACBB"></stop> </linearGradient> <path class="st64" d="M219.6,244.5h-43.3c-1.6,0.3-3.2-0.8-3.5-2.4c-0.3-1.6,0.8-3.2,2.4-3.5c0.4-0.1,0.7-0.1,1.1,0h43.3 c1.6-0.3,3.2,0.8,3.5,2.4c0.3,1.6-0.8,3.2-2.4,3.5C220.3,244.5,220,244.5,219.6,244.5z"></path> <linearGradient id="SVGID_42_" gradientUnits="userSpaceOnUse" x1="219.6431" y1="372.4431" x2="-2.1069" y2="-113.2969" gradientTransform="matrix(1 0 0 -1 0 568)"> <stop offset="0" style="stop-color:#1087C3"></stop> <stop offset="1" style="stop-color:#05ACBB"></stop> </linearGradient> <path class="st65" d="M235.2,229.4H176c-1.7,0-3-1.3-3-3c0.1-1.6,1.4-2.9,3-3h59.2c1.6,0.1,2.9,1.4,2.9,3c0.1,1.6-1.2,2.9-2.8,3 C235.3,229.3,235.2,229.4,235.2,229.4z"></path> </g> <linearGradient id="SVGID_43_" gradientUnits="userSpaceOnUse" x1="176.7513" y1="348.6433" x2="241.8313" y2="67.1434" gradientTransform="matrix(1 0 0 -1 0 568)"> <stop offset="0" style="stop-color:#1087C3"></stop> <stop offset="1" style="stop-color:#05ACBB"></stop> </linearGradient> <path class="st66" d="M216,456.1h34.6c2.8,0,5.1,2.3,5.1,5.1v5.6c0,2.8-2.3,5.1-5.1,5.1H216c-2.8,0-5.1-2.3-5.1-5.1v-5.6 C210.9,458.3,213.2,456.1,216,456.1z"></path> <g class="st9"> <linearGradient id="SVGID_44_" gradientUnits="userSpaceOnUse" x1="286.291" y1="316.2513" x2="181.291" y2="86.2513" gradientTransform="matrix(1 0 0 -1 0 568)"> <stop offset="0" style="stop-color:#1087C3"></stop> <stop offset="1" style="stop-color:#05ACBB"></stop> </linearGradient> <path class="st67" d="M220.4,447.7h-43.3c-1.6,0.3-3.2-0.8-3.5-2.4c-0.3-1.6,0.8-3.2,2.4-3.5c0.4-0.1,0.7-0.1,1.1,0h43.3 c1.6,0.3,2.7,1.9,2.4,3.5C222.6,446.5,221.6,447.4,220.4,447.7L220.4,447.7z"></path> <linearGradient id="SVGID_45_" gradientUnits="userSpaceOnUse" x1="369.0753" y1="494.0576" x2="149.4653" y2="12.9975" gradientTransform="matrix(1 0 0 -1 0 568)"> <stop offset="0" style="stop-color:#1087C3"></stop> <stop offset="1" style="stop-color:#05ACBB"></stop> </linearGradient> <path class="st68" d="M235.9,432.6h-58.4c-1.7,0-3-1.3-3-3c0.1-1.6,1.4-2.9,3-3h58.4c1.7,0,3,1.3,3,3c0.1,1.6-1.2,2.9-2.8,3 C236,432.6,236,432.6,235.9,432.6z"></path> </g> <linearGradient id="SVGID_46_" gradientUnits="userSpaceOnUse" x1="532.1522" y1="369.4333" x2="984.9222" y2="69.0232" gradientTransform="matrix(1 0 0 -1 0 568)"> <stop offset="0" style="stop-color:#0988C5"></stop> <stop offset="1" style="stop-color:#00ADBC"></stop> </linearGradient> <path class="st69" d="M815.7,371.5h-53.2c-1.4,0.3-2.7-0.6-2.9-2s0.6-2.7,2-2.9c0.3-0.1,0.7-0.1,1,0h53.2c1.4-0.3,2.7,0.6,2.9,2 s-0.6,2.7-2,2.9C816.4,371.6,816,371.6,815.7,371.5z"></path> <linearGradient id="SVGID_47_" gradientUnits="userSpaceOnUse" x1="597.1556" y1="307.3285" x2="921.6656" y2="92.0185" gradientTransform="matrix(1 0 0 -1 0 568)"> <stop offset="0" style="stop-color:#0988C5"></stop> <stop offset="1" style="stop-color:#00ADBC"></stop> </linearGradient> <path class="st70" d="M799.5,385.3h-36.4c-1.4,0.3-2.7-0.6-2.9-2s0.6-2.7,2-2.9c0.3-0.1,0.7-0.1,1,0h36.4c1.4-0.3,2.7,0.6,2.9,2 s-0.6,2.7-2,2.9C800.2,385.4,799.8,385.4,799.5,385.3z"></path> <g> <g> <linearGradient id="SVGID_48_" gradientUnits="userSpaceOnUse" x1="109.75" y1="230.3001" x2="155.15" y2="230.3001" gradientTransform="matrix(1 0 0 -1 0 568)"> <stop offset="0" style="stop-color:#F05F58"></stop> <stop offset="1" style="stop-color:#F47F3F"></stop> <stop offset="1" style="stop-color:#F47F3F"></stop> </linearGradient> <path class="st71" d="M153.4,327l1.2-1.9c-0.9-10.2-9.5-17.9-19.7-17.9l-1.4,28.7l1.4,32.4l19.8-1.9v-37.5L153.4,327z"></path> <linearGradient id="SVGID_49_" gradientUnits="userSpaceOnUse" x1="109.75" y1="230.3001" x2="155.15" y2="230.3001" gradientTransform="matrix(1 0 0 -1 0 568)"> <stop offset="0" style="stop-color:#F05F58"></stop> <stop offset="1" style="stop-color:#F47F3F"></stop> <stop offset="1" style="stop-color:#F47F3F"></stop> </linearGradient> <path class="st72" d="M116.4,327l-1.3,1.9v37.5l19.8,1.9v-61.1c-10.2,0-18.8,7.7-19.7,17.9L116.4,327z"></path> <path class="st13" d="M145.1,348.6h-2.2v-1.1c0-0.9-0.7-1.6-1.6-1.7h-15.8c-0.8,0-1.5,0.7-1.5,1.5c0,0.1,0,0.1,0,0.2l1.3,17.1 c0,0.8,0.7,1.5,1.5,1.5h13.3c0.8,0,1.5-0.7,1.6-1.5l0.3-4h3.1c3.3,0,6-2.7,6-6S148.4,348.6,145.1,348.6L145.1,348.6z M145.1,356.8 h-2.8l0.3-4.4h2.5c1.2,0,2.2,1,2.2,2.2C147.3,355.8,146.3,356.7,145.1,356.8z"></path> <circle class="st18" cx="134.9" cy="327" r="12.2"></circle> <path class="st19" d="M154.7,327c0-0.6,0-1.3-0.1-1.9h-19.7l-1.4,2.6l1.4,1.2h19.8V327z"></path> <path class="st19" d="M115.2,325.1c-0.1,0.6-0.1,1.3-0.1,1.9v1.9h19.8v-3.8H115.2z"></path> <path class="st19" d="M115.1,370.8c0,1.8,1.5,3.3,3.3,3.3h33c1.8,0,3.3-1.5,3.3-3.3v-4.7h-39.6V370.8z"></path> </g> <linearGradient id="SVGID_50_" gradientUnits="userSpaceOnUse" x1="93.585" y1="227.405" x2="273.315" y2="227.405" gradientTransform="matrix(1 0 0 -1 0 568)"> <stop offset="0" style="stop-color:#F05F58"></stop> <stop offset="1" style="stop-color:#F47F3F"></stop> <stop offset="1" style="stop-color:#F47F3F"></stop> </linearGradient> <path class="st73" d="M111.2,291.5h144.5c8,0,14.5,6.5,14.5,14.5v69.3c0,8-6.5,14.5-14.5,14.5H111.2c-8,0-14.5-6.5-14.5-14.5V306 C96.7,297.9,103.2,291.5,111.2,291.5z"></path> <linearGradient id="SVGID_51_" gradientUnits="userSpaceOnUse" x1="224.7441" y1="207.0932" x2="248.2141" y2="177.3032" gradientTransform="matrix(1 0 0 -1 0 568)"> <stop offset="0" style="stop-color:#F79720"></stop> <stop offset="1" style="stop-color:#FABE12"></stop> <stop offset="1" style="stop-color:#FABE12"></stop> </linearGradient> <path class="st74" d="M214.1,361.5h34.6c2.8,0,5.1,2.3,5.1,5.1v5.6c0,2.8-2.3,5.1-5.1,5.1h-34.6c-2.8,0-5.1-2.3-5.1-5.1v-5.6 C209,363.7,211.3,361.5,214.1,361.5z"></path> <linearGradient id="SVGID_52_" gradientUnits="userSpaceOnUse" x1="-149.026" y1="481.2359" x2="493.854" y2="54.6859" gradientTransform="matrix(1 0 0 -1 0 568)"> <stop offset="0" style="stop-color:#0988C5"></stop> <stop offset="1" style="stop-color:#00ADBC"></stop> </linearGradient> <path class="st75" d="M253.6,332.4H178c-1.9,0-3.5-1.6-3.5-3.5s1.6-3.5,3.5-3.5h75.6c1.9-0.1,3.4,1.4,3.5,3.3c0,0.1,0,0.1,0,0.2 C257.1,330.8,255.5,332.4,253.6,332.4z"></path> <linearGradient id="SVGID_53_" gradientUnits="userSpaceOnUse" x1="-29.9722" y1="374.7717" x2="375.8678" y2="105.4917" gradientTransform="matrix(1 0 0 -1 0 568)"> <stop offset="0" style="stop-color:#0988C5"></stop> <stop offset="1" style="stop-color:#00ADBC"></stop> </linearGradient> <path class="st76" d="M222.7,349.6H178c-1.9,0-3.5-1.6-3.5-3.5s1.6-3.5,3.5-3.5h44.7c1.9,0,3.5,1.6,3.5,3.5 S224.6,349.6,222.7,349.6L222.7,349.6z"></path> </g> <linearGradient id="SVGID_54_" gradientUnits="userSpaceOnUse" x1="102.055" y1="463.8723" x2="744.925" y2="37.3322" gradientTransform="matrix(1 0 0 -1 0 568)"> <stop offset="0" style="stop-color:#0988C5"></stop> <stop offset="1" style="stop-color:#00ADBC"></stop> </linearGradient> <path class="st77" d="M504.7,349.7h-75.6c-1.9,0-3.5-1.6-3.5-3.5s1.6-3.5,3.5-3.5h75.6c1.9,0,3.5,1.6,3.5,3.5 S506.6,349.7,504.7,349.7z"></path> <linearGradient id="SVGID_55_" gradientUnits="userSpaceOnUse" x1="221.126" y1="358.7841" x2="626.966" y2="89.5141" gradientTransform="matrix(1 0 0 -1 0 568)"> <stop offset="0" style="stop-color:#0988C5"></stop> <stop offset="1" style="stop-color:#00ADBC"></stop> </linearGradient> <path class="st78" d="M473.7,365.5h-44.6c-1.9,0-3.5-1.6-3.5-3.5l0,0c0-1.9,1.6-3.5,3.5-3.5h44.6c1.9,0,3.5,1.6,3.5,3.5 c0.1,1.9-1.4,3.4-3.3,3.5C473.8,365.5,473.8,365.5,473.7,365.5z"></path> <g class="st9"> <path class="st10" d="M146.1,231.1v12.7c0,0.9-0.7,1.6-1.6,1.6c-0.9,0-1.6-0.7-1.6-1.6v-12.7c0-0.9,0.7-1.6,1.6-1.6 C145.4,229.5,146.1,230.2,146.1,231.1z"></path> <path class="st11" d="M147.7,223.1h-6.3c-0.9,0-1.6,0.7-1.6,1.6v0v6.4c0,0.9,0.7,1.6,1.6,1.6h0h6.3c0.9,0,1.6-0.7,1.6-1.6v0v-6.4 C149.3,223.8,148.6,223.1,147.7,223.1L147.7,223.1z"></path> <path class="st12" d="M147.7,232.7h-3.2v-9.6h3.2c0.9,0,1.6,0.7,1.6,1.6v0v6.4C149.3,231.9,148.6,232.7,147.7,232.7L147.7,232.7z"></path> <path class="st13" d="M157.2,242.3h-19c-0.8,0-1.5,0.7-1.6,1.5v6.4c0,4.4,3.5,7.9,7.9,7.9c4.4,0.1,7.9-3.4,8-7.8c0,0,0-0.1,0-0.1 v-4.8h3.2v4.8c0,0.8,0.7,1.5,1.5,1.6c0.9,0,1.6-0.7,1.6-1.6v0v-6.4C158.7,242.9,158,242.2,157.2,242.3z"></path> <linearGradient id="SVGID_56_" gradientUnits="userSpaceOnUse" x1="117.42" y1="327.45" x2="133.32" y2="327.45" gradientTransform="matrix(1 0 0 -1 0 568)"> <stop offset="0" style="stop-color:#1087C3"></stop> <stop offset="1" style="stop-color:#05ACBB"></stop> </linearGradient> <path class="st79" d="M133.3,224.7c0-0.9-0.7-1.6-1.6-1.6h0H123l-5.6,3.2v30.3c0.1,0.8,0.8,1.5,1.6,1.5h12.7c0.8,0,1.5-0.7,1.6-1.5 V224.7z"></path> <circle class="st11" cx="125.4" cy="231.1" r="1.6"></circle> <circle class="st11" cx="125.4" cy="237.5" r="1.6"></circle> <path class="st1" d="M150.9,213.6H119c-0.8,0-1.5,0.7-1.6,1.5v11.2h43c0.9,0,1.6-0.7,1.6-1.6v0C162,218.5,157,213.6,150.9,213.6z"></path> <path class="st1" d="M162,266.2c0,0.9-0.7,1.6-1.6,1.6h0h-38.2l-4.8-4.1v-7.1c0-0.9,0.7-1.6,1.6-1.6c0,0,0,0,0,0h31.9 C157,255,162,260,162,266.2z"></path> <path class="st15" d="M123.8,243.8v4.8l-3.9,1.9h-7.7l-4.4-1.9v-4.8c0.1-0.8,0.8-1.5,1.6-1.5h12.8 C123,242.2,123.7,242.9,123.8,243.8z"></path> <path class="st15" d="M123.8,261.4v4.8c0,0.9-0.7,1.6-1.6,1.6c0,0,0,0,0,0h-12.8c-0.9,0-1.6-0.7-1.6-1.6l0,0v-4.8l2.5-2h11.5 L123.8,261.4z"></path> <path class="st2" d="M107.8,248.6v12.8h16v-12.8H107.8z"></path> </g> <g class="st9"> <path class="st1" d="M111.3,434.4h49.5v40.7h-49.5V434.4z"></path> <path class="st27" d="M125.5,434.4h21.2v7.1h-21.2V434.4z"></path> <path class="st28" d="M110.2,434.4h49.4v7.1h-49.4V434.4z"></path> <path class="st2" d="M134.9,448.6L134.9,448.6c1,0,1.7,0.7,1.8,1.7l0,0c0,1-0.8,1.8-1.8,1.8l0,0c-1,0-1.8-0.8-1.8-1.8l0,0 C133.2,449.3,133.9,448.5,134.9,448.6z"></path> <path class="st13" d="M147.3,468h-3.6v-3.5h3.6c1-0.1,1.7-0.8,1.7-1.8c0-0.9-0.8-1.7-1.7-1.7c0,0,0,0,0,0h-3.6v-3.6h3.6 c2.9,0,5.3,2.4,5.3,5.3C152.6,465.6,150.2,468,147.3,468z"></path> <path class="st13" d="M136.2,473.3h-2.6c-5.1,0-9.3-4.2-9.3-9.3v-4.3c0-2.2,1.8-4,4-4h13.2c2.2,0,4,1.8,4,4v4.3 C145.5,469.1,141.3,473.3,136.2,473.3z"></path> <path class="st15" d="M161.4,476.9h-53c-1,0-1.8-0.8-1.8-1.8c0-1,0.8-1.8,1.8-1.8l0,0h53c1,0,1.8,0.8,1.8,1.8 C163.2,476,162.4,476.9,161.4,476.9z"></path> <path class="st15" d="M126.1,452.1H119c-1,0-1.8-0.8-1.8-1.8l0,0c0.1-1,0.8-1.7,1.8-1.7h4.9c0.7,0,1.3-0.4,1.6-1l1.7-3.5 c0.4-0.9,1.4-1.3,2.2-0.9c0.1,0,0.1,0.1,0.2,0.1l0,0c0.9,0.4,1.2,1.5,0.8,2.4l-2.8,5.4C127.3,451.6,126.7,452,126.1,452.1z"></path> <path class="st4" d="M142,445h-14.2c-1.9,0-3.5-1.6-3.5-3.5v-7.1h21.2v7.1C145.5,443.4,143.9,445,142,445z"></path> <path class="st1" d="M163.2,438h-56.6v-14.2c0.1-1.9,1.7-3.5,3.6-3.5h49.4c1.9,0,3.5,1.6,3.6,3.5L163.2,438z"></path> <path class="st2" d="M115.5,427.4L115.5,427.4c0.9,0,1.7,0.8,1.7,1.7l0,0c0,1-0.7,1.7-1.7,1.8l0,0c-1,0-1.8-0.8-1.8-1.8l0,0 C113.8,428.1,114.5,427.3,115.5,427.4z"></path> <path class="st2" d="M122.5,427.4L122.5,427.4c1,0,1.7,0.7,1.8,1.7l0,0c0,1-0.8,1.8-1.8,1.8l0,0c-0.9,0-1.7-0.8-1.7-1.7 c0,0,0-0.1,0-0.1l0,0C120.8,428.1,121.6,427.4,122.5,427.4L122.5,427.4z"></path> <path class="st15" d="M154.3,430.9h-10.6c-1-0.1-1.7-0.8-1.7-1.8c0-0.9,0.8-1.7,1.7-1.7h10.6c1,0,1.7,0.7,1.8,1.7 C156.1,430,155.3,430.9,154.3,430.9z"></path> </g> </svg> 